<?xml version="1.0" encoding="UTF-8" standalone="no"?>
<!DOCTYPE svg PUBLIC "-//W3C//DTD SVG 1.1//EN"
 "http://www.w3.org/Graphics/SVG/1.1/DTD/svg11.dtd">
<!-- Generated by graphviz version 2.40.1 (20161225.0304)
 -->
<!-- Title: %3 Pages: 1 -->
<svg width="422pt" height="206pt"
 viewBox="0.00 0.00 422.00 206.00" xmlns="http://www.w3.org/2000/svg" xmlns:xlink="http://www.w3.org/1999/xlink">
<g id="graph0" class="graph" transform="scale(1 1) rotate(0) translate(4 202)">
<title>%3</title>
<polygon fill="#ffffff" stroke="transparent" points="-4,4 -4,-202 418,-202 418,4 -4,4"/>
<!-- p1 -->
<g id="node1" class="node">
<title>p1</title>
<text text-anchor="middle" x="207" y="-68.3" font-family="Times,serif" font-size="14.00" fill="#000000">( )</text>
</g>
<!-- a1 -->
<g id="node3" class="node">
<title>a1</title>
<text text-anchor="middle" x="297" y="-68.3" font-family="Times,serif" font-size="14.00" fill="#000000">+</text>
</g>
<!-- p1&#45;&gt;a1 -->
<g id="edge1" class="edge">
<title>p1&#45;&gt;a1</title>
<path fill="none" stroke="#000000" d="M234.003,-72C242.0277,-72 250.9665,-72 259.5309,-72"/>
<polygon fill="#000000" stroke="#000000" points="259.7051,-75.5001 269.705,-72 259.705,-68.5001 259.7051,-75.5001"/>
</g>
<!-- p2 -->
<g id="node2" class="node">
<title>p2</title>
<text text-anchor="middle" x="117" y="-122.3" font-family="Times,serif" font-size="14.00" fill="#000000">( )</text>
</g>
<!-- a2 -->
<g id="node4" class="node">
<title>a2</title>
<text text-anchor="middle" x="207" y="-122.3" font-family="Times,serif" font-size="14.00" fill="#000000">+</text>
</g>
<!-- p2&#45;&gt;a2 -->
<g id="edge2" class="edge">
<title>p2&#45;&gt;a2</title>
<path fill="none" stroke="#000000" d="M144.003,-126C152.0277,-126 160.9665,-126 169.5309,-126"/>
<polygon fill="#000000" stroke="#000000" points="169.7051,-129.5001 179.705,-126 169.705,-122.5001 169.7051,-129.5001"/>
</g>
<!-- 4 -->
<g id="node8" class="node">
<title>4</title>
<text text-anchor="middle" x="387" y="-95.3" font-family="Times,serif" font-size="14.00" fill="#000000">4</text>
</g>
<!-- a1&#45;&gt;4 -->
<g id="edge7" class="edge">
<title>a1&#45;&gt;4</title>
<path fill="none" stroke="#000000" d="M324.003,-80.1009C332.204,-82.5612 341.3599,-85.308 350.095,-87.9285"/>
<polygon fill="#000000" stroke="#000000" points="349.121,-91.2904 359.705,-90.8115 351.1325,-84.5856 349.121,-91.2904"/>
</g>
<!-- 5 -->
<g id="node9" class="node">
<title>5</title>
<text text-anchor="middle" x="387" y="-41.3" font-family="Times,serif" font-size="14.00" fill="#000000">5</text>
</g>
<!-- a1&#45;&gt;5 -->
<g id="edge8" class="edge">
<title>a1&#45;&gt;5</title>
<path fill="none" stroke="#000000" d="M324.003,-63.8991C332.204,-61.4388 341.3599,-58.692 350.095,-56.0715"/>
<polygon fill="#000000" stroke="#000000" points="351.1325,-59.4144 359.705,-53.1885 349.121,-52.7096 351.1325,-59.4144"/>
</g>
<!-- 6 -->
<g id="node10" class="node">
<title>6</title>
<text text-anchor="middle" x="297" y="-176.3" font-family="Times,serif" font-size="14.00" fill="#000000">6</text>
</g>
<!-- a2&#45;&gt;6 -->
<g id="edge9" class="edge">
<title>a2&#45;&gt;6</title>
<path fill="none" stroke="#000000" d="M234.003,-142.2018C242.4686,-147.2812 251.9516,-152.971 260.9389,-158.3634"/>
<polygon fill="#000000" stroke="#000000" points="259.3293,-161.4792 269.705,-163.623 262.9308,-155.4768 259.3293,-161.4792"/>
</g>
<!-- 7 -->
<g id="node11" class="node">
<title>7</title>
<text text-anchor="middle" x="297" y="-122.3" font-family="Times,serif" font-size="14.00" fill="#000000">7</text>
</g>
<!-- a2&#45;&gt;7 -->
<g id="edge10" class="edge">
<title>a2&#45;&gt;7</title>
<path fill="none" stroke="#000000" d="M234.003,-126C242.0277,-126 250.9665,-126 259.5309,-126"/>
<polygon fill="#000000" stroke="#000000" points="259.7051,-129.5001 269.705,-126 259.705,-122.5001 259.7051,-129.5001"/>
</g>
<!-- m1 -->
<g id="node5" class="node">
<title>m1</title>
<text text-anchor="middle" x="117" y="-68.3" font-family="Times,serif" font-size="14.00" fill="#000000">*</text>
</g>
<!-- m1&#45;&gt;p1 -->
<g id="edge4" class="edge">
<title>m1&#45;&gt;p1</title>
<path fill="none" stroke="#000000" d="M144.003,-72C152.0277,-72 160.9665,-72 169.5309,-72"/>
<polygon fill="#000000" stroke="#000000" points="169.7051,-75.5001 179.705,-72 169.705,-68.5001 169.7051,-75.5001"/>
</g>
<!-- 3 -->
<g id="node7" class="node">
<title>3</title>
<text text-anchor="middle" x="207" y="-14.3" font-family="Times,serif" font-size="14.00" fill="#000000">3</text>
</g>
<!-- m1&#45;&gt;3 -->
<g id="edge3" class="edge">
<title>m1&#45;&gt;3</title>
<path fill="none" stroke="#000000" d="M144.003,-55.7982C152.4686,-50.7188 161.9516,-45.029 170.9389,-39.6366"/>
<polygon fill="#000000" stroke="#000000" points="172.9308,-42.5232 179.705,-34.377 169.3293,-36.5208 172.9308,-42.5232"/>
</g>
<!-- m2 -->
<g id="node6" class="node">
<title>m2</title>
<text text-anchor="middle" x="27" y="-95.3" font-family="Times,serif" font-size="14.00" fill="#000000">*</text>
</g>
<!-- m2&#45;&gt;p2 -->
<g id="edge6" class="edge">
<title>m2&#45;&gt;p2</title>
<path fill="none" stroke="#000000" d="M54.003,-107.1009C62.204,-109.5612 71.3599,-112.308 80.095,-114.9285"/>
<polygon fill="#000000" stroke="#000000" points="79.121,-118.2904 89.705,-117.8115 81.1325,-111.5856 79.121,-118.2904"/>
</g>
<!-- m2&#45;&gt;m1 -->
<g id="edge5" class="edge">
<title>m2&#45;&gt;m1</title>
<path fill="none" stroke="#000000" d="M54.003,-90.8991C62.204,-88.4388 71.3599,-85.692 80.095,-83.0715"/>
<polygon fill="#000000" stroke="#000000" points="81.1325,-86.4144 89.705,-80.1885 79.121,-79.7096 81.1325,-86.4144"/>
</g>
</g>
</svg>
