<?xml version="1.0" encoding="UTF-8" standalone="no"?>
<!DOCTYPE svg PUBLIC "-//W3C//DTD SVG 1.1//EN"
 "http://www.w3.org/Graphics/SVG/1.1/DTD/svg11.dtd">
<!-- Generated by graphviz version 2.40.1 (20161225.0304)
 -->
<!-- Title: %3 Pages: 1 -->
<svg width="602pt" height="152pt"
 viewBox="0.00 0.00 602.00 152.00" xmlns="http://www.w3.org/2000/svg" xmlns:xlink="http://www.w3.org/1999/xlink">
<g id="graph0" class="graph" transform="scale(1 1) rotate(0) translate(4 148)">
<title>%3</title>
<polygon fill="#ffffff" stroke="transparent" points="-4,4 -4,-148 598,-148 598,4 -4,4"/>
<!-- p1 -->
<g id="node1" class="node">
<title>p1</title>
<text text-anchor="middle" x="387" y="-95.3" font-family="Times,serif" font-size="14.00" fill="#000000">( )</text>
</g>
<!-- a1 -->
<g id="node4" class="node">
<title>a1</title>
<text text-anchor="middle" x="477" y="-95.3" font-family="Times,serif" font-size="14.00" fill="#000000">+</text>
</g>
<!-- p1&#45;&gt;a1 -->
<g id="edge3" class="edge">
<title>p1&#45;&gt;a1</title>
<path fill="none" stroke="#000000" d="M414.003,-99C422.0277,-99 430.9665,-99 439.5309,-99"/>
<polygon fill="#000000" stroke="#000000" points="439.7051,-102.5001 449.705,-99 439.705,-95.5001 439.7051,-102.5001"/>
</g>
<!-- p2 -->
<g id="node2" class="node">
<title>p2</title>
<text text-anchor="middle" x="207" y="-68.3" font-family="Times,serif" font-size="14.00" fill="#000000">( )</text>
</g>
<!-- a2 -->
<g id="node5" class="node">
<title>a2</title>
<text text-anchor="middle" x="297" y="-68.3" font-family="Times,serif" font-size="14.00" fill="#000000">+</text>
</g>
<!-- p2&#45;&gt;a2 -->
<g id="edge6" class="edge">
<title>p2&#45;&gt;a2</title>
<path fill="none" stroke="#000000" d="M234.003,-72C242.0277,-72 250.9665,-72 259.5309,-72"/>
<polygon fill="#000000" stroke="#000000" points="259.7051,-75.5001 269.705,-72 259.705,-68.5001 259.7051,-75.5001"/>
</g>
<!-- p3 -->
<g id="node3" class="node">
<title>p3</title>
<text text-anchor="middle" x="27" y="-41.3" font-family="Times,serif" font-size="14.00" fill="#000000">( )</text>
</g>
<!-- a3 -->
<g id="node6" class="node">
<title>a3</title>
<text text-anchor="middle" x="117" y="-41.3" font-family="Times,serif" font-size="14.00" fill="#000000">+</text>
</g>
<!-- p3&#45;&gt;a3 -->
<g id="edge9" class="edge">
<title>p3&#45;&gt;a3</title>
<path fill="none" stroke="#000000" d="M54.003,-45C62.0277,-45 70.9665,-45 79.5309,-45"/>
<polygon fill="#000000" stroke="#000000" points="79.7051,-48.5001 89.705,-45 79.705,-41.5001 79.7051,-48.5001"/>
</g>
<!-- 4 -->
<g id="node9" class="node">
<title>4</title>
<text text-anchor="middle" x="567" y="-122.3" font-family="Times,serif" font-size="14.00" fill="#000000">4</text>
</g>
<!-- a1&#45;&gt;4 -->
<g id="edge1" class="edge">
<title>a1&#45;&gt;4</title>
<path fill="none" stroke="#000000" d="M504.003,-107.1009C512.204,-109.5612 521.3599,-112.308 530.095,-114.9285"/>
<polygon fill="#000000" stroke="#000000" points="529.121,-118.2904 539.705,-117.8115 531.1325,-111.5856 529.121,-118.2904"/>
</g>
<!-- 5 -->
<g id="node10" class="node">
<title>5</title>
<text text-anchor="middle" x="567" y="-68.3" font-family="Times,serif" font-size="14.00" fill="#000000">5</text>
</g>
<!-- a1&#45;&gt;5 -->
<g id="edge2" class="edge">
<title>a1&#45;&gt;5</title>
<path fill="none" stroke="#000000" d="M504.003,-90.8991C512.204,-88.4388 521.3599,-85.692 530.095,-83.0715"/>
<polygon fill="#000000" stroke="#000000" points="531.1325,-86.4144 539.705,-80.1885 529.121,-79.7096 531.1325,-86.4144"/>
</g>
<!-- a2&#45;&gt;p1 -->
<g id="edge5" class="edge">
<title>a2&#45;&gt;p1</title>
<path fill="none" stroke="#000000" d="M324.003,-80.1009C332.204,-82.5612 341.3599,-85.308 350.095,-87.9285"/>
<polygon fill="#000000" stroke="#000000" points="349.121,-91.2904 359.705,-90.8115 351.1325,-84.5856 349.121,-91.2904"/>
</g>
<!-- 3 -->
<g id="node8" class="node">
<title>3</title>
<text text-anchor="middle" x="387" y="-41.3" font-family="Times,serif" font-size="14.00" fill="#000000">3</text>
</g>
<!-- a2&#45;&gt;3 -->
<g id="edge4" class="edge">
<title>a2&#45;&gt;3</title>
<path fill="none" stroke="#000000" d="M324.003,-63.8991C332.204,-61.4388 341.3599,-58.692 350.095,-56.0715"/>
<polygon fill="#000000" stroke="#000000" points="351.1325,-59.4144 359.705,-53.1885 349.121,-52.7096 351.1325,-59.4144"/>
</g>
<!-- a3&#45;&gt;p2 -->
<g id="edge8" class="edge">
<title>a3&#45;&gt;p2</title>
<path fill="none" stroke="#000000" d="M144.003,-53.1009C152.204,-55.5612 161.3599,-58.308 170.095,-60.9285"/>
<polygon fill="#000000" stroke="#000000" points="169.121,-64.2904 179.705,-63.8115 171.1325,-57.5856 169.121,-64.2904"/>
</g>
<!-- 2 -->
<g id="node7" class="node">
<title>2</title>
<text text-anchor="middle" x="207" y="-14.3" font-family="Times,serif" font-size="14.00" fill="#000000">2</text>
</g>
<!-- a3&#45;&gt;2 -->
<g id="edge7" class="edge">
<title>a3&#45;&gt;2</title>
<path fill="none" stroke="#000000" d="M144.003,-36.8991C152.204,-34.4388 161.3599,-31.692 170.095,-29.0715"/>
<polygon fill="#000000" stroke="#000000" points="171.1325,-32.4144 179.705,-26.1885 169.121,-25.7096 171.1325,-32.4144"/>
</g>
</g>
</svg>
