<?xml version="1.0" encoding="UTF-8" standalone="no"?>
<!DOCTYPE svg PUBLIC "-//W3C//DTD SVG 1.1//EN"
 "http://www.w3.org/Graphics/SVG/1.1/DTD/svg11.dtd">
<!-- Generated by graphviz version 2.40.1 (20161225.0304)
 -->
<!-- Title: %3 Pages: 1 -->
<svg width="332pt" height="233pt"
 viewBox="0.00 0.00 332.00 233.00" xmlns="http://www.w3.org/2000/svg" xmlns:xlink="http://www.w3.org/1999/xlink">
<g id="graph0" class="graph" transform="scale(1 1) rotate(0) translate(4 229)">
<title>%3</title>
<polygon fill="#ffffff" stroke="transparent" points="-4,4 -4,-229 328,-229 328,4 -4,4"/>
<!-- a1 -->
<g id="node1" class="node">
<title>a1</title>
<text text-anchor="middle" x="117" y="-122.3" font-family="Times,serif" font-size="14.00" fill="#000000">+</text>
</g>
<!-- m1 -->
<g id="node3" class="node">
<title>m1</title>
<text text-anchor="middle" x="207" y="-176.3" font-family="Times,serif" font-size="14.00" fill="#000000">*</text>
</g>
<!-- a1&#45;&gt;m1 -->
<g id="edge5" class="edge">
<title>a1&#45;&gt;m1</title>
<path fill="none" stroke="#000000" d="M144.003,-142.2018C152.4686,-147.2812 161.9516,-152.971 170.9389,-158.3634"/>
<polygon fill="#000000" stroke="#000000" points="169.3293,-161.4792 179.705,-163.623 172.9308,-155.4768 169.3293,-161.4792"/>
</g>
<!-- 5 -->
<g id="node7" class="node">
<title>5</title>
<text text-anchor="middle" x="207" y="-122.3" font-family="Times,serif" font-size="14.00" fill="#000000">5</text>
</g>
<!-- a1&#45;&gt;5 -->
<g id="edge6" class="edge">
<title>a1&#45;&gt;5</title>
<path fill="none" stroke="#000000" d="M144.003,-126C152.0277,-126 160.9665,-126 169.5309,-126"/>
<polygon fill="#000000" stroke="#000000" points="169.7051,-129.5001 179.705,-126 169.705,-122.5001 169.7051,-129.5001"/>
</g>
<!-- a2 -->
<g id="node2" class="node">
<title>a2</title>
<text text-anchor="middle" x="27" y="-95.3" font-family="Times,serif" font-size="14.00" fill="#000000">+</text>
</g>
<!-- a2&#45;&gt;a1 -->
<g id="edge8" class="edge">
<title>a2&#45;&gt;a1</title>
<path fill="none" stroke="#000000" d="M54.003,-107.1009C62.204,-109.5612 71.3599,-112.308 80.095,-114.9285"/>
<polygon fill="#000000" stroke="#000000" points="79.121,-118.2904 89.705,-117.8115 81.1325,-111.5856 79.121,-118.2904"/>
</g>
<!-- m2 -->
<g id="node4" class="node">
<title>m2</title>
<text text-anchor="middle" x="117" y="-68.3" font-family="Times,serif" font-size="14.00" fill="#000000">*</text>
</g>
<!-- a2&#45;&gt;m2 -->
<g id="edge7" class="edge">
<title>a2&#45;&gt;m2</title>
<path fill="none" stroke="#000000" d="M54.003,-90.8991C62.204,-88.4388 71.3599,-85.692 80.095,-83.0715"/>
<polygon fill="#000000" stroke="#000000" points="81.1325,-86.4144 89.705,-80.1885 79.121,-79.7096 81.1325,-86.4144"/>
</g>
<!-- 3 -->
<g id="node5" class="node">
<title>3</title>
<text text-anchor="middle" x="297" y="-203.3" font-family="Times,serif" font-size="14.00" fill="#000000">3</text>
</g>
<!-- m1&#45;&gt;3 -->
<g id="edge1" class="edge">
<title>m1&#45;&gt;3</title>
<path fill="none" stroke="#000000" d="M234.003,-188.1009C242.204,-190.5612 251.3599,-193.308 260.095,-195.9285"/>
<polygon fill="#000000" stroke="#000000" points="259.121,-199.2904 269.705,-198.8115 261.1325,-192.5856 259.121,-199.2904"/>
</g>
<!-- 4 -->
<g id="node6" class="node">
<title>4</title>
<text text-anchor="middle" x="297" y="-149.3" font-family="Times,serif" font-size="14.00" fill="#000000">4</text>
</g>
<!-- m1&#45;&gt;4 -->
<g id="edge2" class="edge">
<title>m1&#45;&gt;4</title>
<path fill="none" stroke="#000000" d="M234.003,-171.8991C242.204,-169.4388 251.3599,-166.692 260.095,-164.0715"/>
<polygon fill="#000000" stroke="#000000" points="261.1325,-167.4144 269.705,-161.1885 259.121,-160.7096 261.1325,-167.4144"/>
</g>
<!-- 6 -->
<g id="node8" class="node">
<title>6</title>
<text text-anchor="middle" x="207" y="-68.3" font-family="Times,serif" font-size="14.00" fill="#000000">6</text>
</g>
<!-- m2&#45;&gt;6 -->
<g id="edge3" class="edge">
<title>m2&#45;&gt;6</title>
<path fill="none" stroke="#000000" d="M144.003,-72C152.0277,-72 160.9665,-72 169.5309,-72"/>
<polygon fill="#000000" stroke="#000000" points="169.7051,-75.5001 179.705,-72 169.705,-68.5001 169.7051,-75.5001"/>
</g>
<!-- 7 -->
<g id="node9" class="node">
<title>7</title>
<text text-anchor="middle" x="207" y="-14.3" font-family="Times,serif" font-size="14.00" fill="#000000">7</text>
</g>
<!-- m2&#45;&gt;7 -->
<g id="edge4" class="edge">
<title>m2&#45;&gt;7</title>
<path fill="none" stroke="#000000" d="M144.003,-55.7982C152.4686,-50.7188 161.9516,-45.029 170.9389,-39.6366"/>
<polygon fill="#000000" stroke="#000000" points="172.9308,-42.5232 179.705,-34.377 169.3293,-36.5208 172.9308,-42.5232"/>
</g>
</g>
</svg>
